<svg t="1719390451585" class="icon" viewBox="0 0 1024 1024" version="1.1" xmlns="http://www.w3.org/2000/svg" p-id="9495" width="200" height="200"><path d="M508.196571 857.819429H240.64a38.619429 38.619429 0 0 1-37.668571-39.497143c0-21.650286 16.822857-39.350857 37.668571-39.350857h267.702857a259.291429 259.291429 0 0 1 51.858286-121.124572h-319.634286a38.546286 38.546286 0 0 1-37.741714-39.424c0-21.723429 16.822857-39.350857 37.741714-39.350857h425.691429a238.08 238.08 0 0 1 205.458285 17.408l-0.073142-522.678857C871.570286 32.914286 839.68 0 800.402286 0h-656.091429C105.033143 0 73.142857 33.060571 73.142857 73.801143V950.125714C73.142857 991.085714 105.033143 1024 144.310857 1024h461.677714a255.634286 255.634286 0 0 1-97.792-166.180571zM426.788571 215.332571l42.642286-95.158857 46.811429 92.964572 100.352 12.726857-70.729143 74.971428 19.236571 102.912-90.550857-46.811428-88.210286 51.126857 14.774858-103.789714-74.020572-71.387429 99.693714-17.554286z m330.386286 402.066286c-106.934857 0-193.682286 89.965714-193.682286 200.996572 0 110.957714 86.747429 200.923429 193.682286 200.923428 107.008 0 193.682286-89.965714 193.682286-200.923428S864.182857 617.325714 757.174857 617.325714z m28.964572 320.073143l-6.363429-0.804571a26.989714 26.989714 0 0 0-3.803429-1.170286c-1.609143 2.779429-5.266286 3.437714-8.484571 2.779428-2.706286-0.585143-4.827429-2.779429-6.802286-3.949714l-13.531428-8.777143-69.485715-45.421714-10.459428-6.875429c-5.632-3.876571-10.971429-6.363429-7.972572-14.043428-8.338286-6.363429-12.653714-24.868571-3.364571-37.083429a27.136 27.136 0 0 1 26.404571-11.044571c5.12 0.658286 10.386286 3.876571 14.116572 6.363428l20.699428 13.385143 4.827429-5.266285 6.217143-8.557715 56.32 36.644572v0.073143c-3.291429 4.388571-5.339429 10.093714-7.68 16.091428l13.750857 8.996572c9.874286 6.875429 18.432 10.971429 21.430857 20.992a30.573714 30.573714 0 0 1 1.682286 10.24 27.501714 27.501714 0 0 1-27.501714 27.428571z m58.88-141.677714a53.467429 53.467429 0 0 1-13.019429 11.483428l-5.705143 2.998857a152.064 152.064 0 0 0-27.062857 23.771429c-3.584 3.803429-7.826286 8.045714-10.678857 12.873143l-0.512-0.219429-56.173714-36.571428c7.68-14.921143 13.092571-31.012571 15.798857-47.689143 1.389714-8.557714 0.585143-18.651429 6.436571-28.452572a51.638857 51.638857 0 0 1 52.224-26.770285c2.486857 0.438857 4.900571 0.877714 7.460572 1.462857l3.949714 1.316571c24.868571 9.508571 37.156571 30.134857 37.888 50.541715a52.662857 52.662857 0 0 1-10.605714 35.254857z" p-id="9496"></path></svg>
