<svg t="1719390887151" class="icon" viewBox="0 0 1172 1024" version="1.1" xmlns="http://www.w3.org/2000/svg" p-id="20695" width="200" height="200"><path d="M1015.66658 625.901581L1169.294997 466.579207l-105.297557-133.713119s-51.21851 36.983614-54.051932 31.289656c-17.081875-179.237671-207.693905-230.469738-207.693906-230.469739V108.103864L697.035388 0l-73.980786 79.661187 88.202125 113.797823 14.221339 5.680401 25.609255 96.743062s-77.668302 69.764546-175.57727 157.641301l-91.848969-95.061988-59.745891-5.680402 31.289657-193.472567s-108.117421-147.934458-150.781438-145.060364-116.590574 34.136635-116.590573 34.136635l93.882526 99.576484-2.846979 62.59287-82.508167 85.409373-39.830593 2.833422S51.286295 201.999947 36.983614 201.999947 0 330.032665 0 330.032665s73.967229 82.508166 93.882526 108.103865S176.390692 489.409268 176.390692 489.409268s165.016333-51.286295 156.475396-42.745358 22.762276 68.273271 22.762275 68.273271l69.642533 73.343605c-125.104397 112.130306-239.376716 214.309743-243.186246 216.912695-8.540937 5.693958 0 62.59287 0 62.592869s110.950843 133.713119 116.590574 142.254057 62.59287-2.846979 62.59287-2.846979l220.654439-253.950538 90.059439 94.899305c-0.244027 3.673959-0.555839 7.334361-0.555839 11.089661a163.484387 163.484387 0 1 0 137.698891-160.162911l1.748858-2.047114-94.804405-98.098766 154.550296-177.86841 65.426291 22.762276-31.289656 65.439849z m-88.188567 233.289604a93.896083 93.896083 0 1 1-93.882526-93.896083 93.896083 93.896083 0 0 1 93.882526 93.896083z" p-id="20696"></path></svg>
