<svg t="1695885428577" class="icon" viewBox="0 0 1024 1024" version="1.1" xmlns="http://www.w3.org/2000/svg" p-id="2815" width="200" height="200"><path d="M980.435 558.036s-129.63 322.006-553.582 166.158l32.582-79.292s28.892-77.893-70.828-59.247L108.54 660.111s-63.574 19.155-33.919 74.837l160.43 272.178s48.492 44.419 79.229-10.882l32.073-79.547c-0.064-0.064 524.436 199.376 634.083-358.66z m-936.87-104.11s137.584-318.633 557.527-152.221l-34.555 78.529s-30.8 77.128 69.429 60.964l281.85-67.328s64.083-17.564 35.7-74.01L800.086 23.863s-47.537-45.819-79.546 8.655l-34.046 78.91c-0.064 0-519.472-212.485-642.929 342.497z" p-id="2816"></path></svg>
