<?xml version="1.0" standalone="no"?><!DOCTYPE svg PUBLIC "-//W3C//DTD SVG 1.1//EN" "http://www.w3.org/Graphics/SVG/1.1/DTD/svg11.dtd"><svg t="1719391388390" class="icon" viewBox="0 0 1024 1024" version="1.1" xmlns="http://www.w3.org/2000/svg" p-id="31456" xmlns:xlink="http://www.w3.org/1999/xlink" width="200" height="200"><path d="M544.12274 480.620712c124.647452 0 225.686795-101.05337 225.686794-225.700822S668.756164 29.233096 544.12274 29.233096c-124.647452 0-225.700822 101.039342-225.700822 225.686794 0 124.647452 101.05337 225.700822 225.700822 225.700822z m284.223123 91.725151c-146.951014-107.029041-341.553096-122.445151-503.513425-39.865863C162.886137 615.04526 61.047233 781.606575 61.355836 963.387616v31.379288h626.393424c-73.208986-64.007014-100.871014-165.691616-70.151013-257.963836 30.691945-92.272219 113.776219-157.092822 210.747616-164.457205z m0 0" p-id="31457"></path><path d="M824.923178 698.283836v-56.530411c0-7.378411-8.921425-11.081644-14.139616-5.863452L663.131178 783.30389c-9.987507 9.959452-9.987507 26.147068 0 36.106521L810.783562 966.796274c5.218192 5.218192 14.139616 1.514959 14.139616-5.863452v-56.516384h137.720986V698.283836h-137.720986z" p-id="31458"></path></svg>