<?xml version="1.0" standalone="no"?><!DOCTYPE svg PUBLIC "-//W3C//DTD SVG 1.1//EN" "http://www.w3.org/Graphics/SVG/1.1/DTD/svg11.dtd"><svg t="1719391341456" class="icon" viewBox="0 0 1025 1024" version="1.1" xmlns="http://www.w3.org/2000/svg" p-id="30476" xmlns:xlink="http://www.w3.org/1999/xlink" width="200.1953125" height="200"><path d="M441.61219 0C162.864762 0 0.024381 69.36381 0.024381 154.916571l0 92.91581c0 85.552762 162.840381 154.940952 441.58781 154.940952 278.77181 0 473.136762-69.412571 473.136762-154.940952L914.748952 154.916571C914.773333 69.36381 720.384 0 441.61219 0L441.61219 0zM441.61219 0" p-id="30477"></path><path d="M402.578286 803.742476c-200.508952-7.094857-317.610667-50.44419-379.196952-108.495238C7.655619 710.046476 0.024381 725.845333 0.024381 742.204952l0 125.269333C0.024381 953.929143 170.593524 1024 462.555429 1024c29.208381 0 57.636571-0.853333 85.601524-2.243048C473.161143 970.654476 419.644952 893.318095 402.578286 803.742476L402.578286 803.742476zM402.578286 803.742476" p-id="30478"></path><path d="M475.087238 475.40419c-6.217143 0.024381-12.214857 0.097524-18.578286 0.097524-234.447238 0-366.665143-46.372571-433.347048-110.299429C7.606857 380.17219 0.024381 396.01981 0.024381 412.501333l0 126.073905c0 80.164571 143.798857 146.310095 392.728381 156.16C393.118476 611.401143 423.911619 535.04 475.087238 475.40419L475.087238 475.40419zM475.087238 475.40419" p-id="30479"></path><path d="M731.599238 439.222857c-161.499429 0-292.400762 130.876952-292.400762 292.400762C439.198476 893.098667 570.09981 1024 731.599238 1024 893.074286 1024 1024.024381 893.098667 1024.024381 731.623619 1024.024381 570.09981 893.074286 439.222857 731.599238 439.222857L731.599238 439.222857zM914.358857 804.62019l-182.881524 0 0 109.738667L548.59581 731.452952l182.881524-182.881524 0 109.738667 182.881524 0L914.358857 804.62019 914.358857 804.62019zM914.358857 804.62019" p-id="30480"></path></svg>