<?xml version="1.0" standalone="no"?><!DOCTYPE svg PUBLIC "-//W3C//DTD SVG 1.1//EN" "http://www.w3.org/Graphics/SVG/1.1/DTD/svg11.dtd"><svg t="1660899119520" class="icon" viewBox="0 0 1024 1024" version="1.1" xmlns="http://www.w3.org/2000/svg" p-id="5935" xmlns:xlink="http://www.w3.org/1999/xlink" width="200" height="200"><defs><style type="text/css">@font-face { font-family: feedback-iconfont; src: url("//at.alicdn.com/t/font_1031158_u69w8yhxdu.woff2?t=1630033759944") format("woff2"), url("//at.alicdn.com/t/font_1031158_u69w8yhxdu.woff?t=1630033759944") format("woff"), url("//at.alicdn.com/t/font_1031158_u69w8yhxdu.ttf?t=1630033759944") format("truetype"); }
</style></defs><path d="M454.67 887.97c-143.5 0-306.57-15.22-306.57-83.88v-48.75c0-63.97 97.61-121.76 204.38-143.5 17.51-8.69 27.69-27.58 25.29-47.03-20.71-24.95-35.13-54.47-41.88-86.17-7.44-3.32-14.08-8.01-19.8-13.73-14.19-21.4-21.06-46.69-19.8-72.33 3.2-26.09 9.15-16.94 10.64-21.28a205.404 205.404 0 0 1 16.94-169.36c54.81-97.62 172.23-68.66 190.31-32.16 113.06-21.28 108.48 154.14 93.03 200.95 0 0 10.64 0 7.78 44.17a108.103 108.103 0 0 1-38.22 71.52c-7.67 28.61-21.17 55.27-39.59 78.39-4.12 6.87-5.72 14.99-4.58 23a214.185 214.185 0 0 0-33.53 117.41c0 68.66 31.82 133.43 86.17 175.43-41.32 3.2-86.17 7.44-131.14 7.44h0.57v-0.12z m0 0" p-id="5936"></path><path d="M556.86 728.11c-0.12-17.39 1.37-34.79 4.58-51.95l-45.89-7.44 100.82-60.88 36.5 45.66 36.73 45.66-59.73-7.78a96.606 96.606 0 0 0-1.72 23c0 62.6 53.44 114.89 108.25 135.49-73.01 16.93-175.19-30.21-179.54-121.76z m271.32 53.09l-50.24 32.16-38.22-44.17-38.23-44.17 59.39 6.06c0.69-7.67 0.69-15.33 0-23 0-62.25-57.45-114.89-111.11-132.63 72.9-18.07 176.8 26.1 182.87 117.41 1.37 17.4 0.46 34.79-2.86 51.95l45.66 6.06-47.26 30.33z m0 0" p-id="5937"></path></svg>