<svg t="1717741172679" class="icon" viewBox="0 0 1024 1024" version="1.1" xmlns="http://www.w3.org/2000/svg" p-id="5778" width="200" height="200"><path d="M874.666667 725.333333H149.333333c-23.466667 0-42.666667 19.2-42.666666 42.666667v106.666667c0 23.466667 19.2 42.666667 42.666666 42.666666h725.333334c23.466667 0 42.666667-19.2 42.666666-42.666666v-106.666667c0-23.466667-19.2-42.666667-42.666666-42.666667z m-373.333334 128h-277.333333c-17.066667 0-32-14.933333-32-32s14.933333-32 32-32h277.333333c17.066667 0 32 14.933333 32 32s-14.933333 32-32 32z m192 0c-17.066667 0-32-14.933333-32-32s14.933333-32 32-32 32 14.933333 32 32-14.933333 32-32 32z m106.666667 0c-17.066667 0-32-14.933333-32-32s14.933333-32 32-32 32 14.933333 32 32-14.933333 32-32 32zM874.666667 106.666667H149.333333c-23.466667 0-42.666667 19.2-42.666666 42.666666v469.333334c0 23.466667 19.2 42.666667 42.666666 42.666666h725.333334c23.466667 0 42.666667-19.2 42.666666-42.666666V149.333333c0-23.466667-19.2-42.666667-42.666666-42.666666z m-74.666667 360.533333h-83.2c-19.2 0-38.4-10.666667-46.933333-27.733333l-87.466667-160-89.6 270.933333c-6.4 19.2-21.333333 34.133333-40.533333 36.266667h-10.666667c-19.2 0-36.266667-8.533333-44.8-25.6l-72.533333-117.333334h-100.266667c-17.066667 0-32-14.933333-32-32s14.933333-32 32-32H341.333333c10.666667 0 21.333333 6.4 27.733334 14.933334l70.4 113.066666 89.6-270.933333c6.4-19.2 21.333333-34.133333 42.666666-38.4 23.466667-4.266667 44.8 6.4 55.466667 27.733333l96 174.933334h76.8c17.066667 0 32 14.933333 32 32s-14.933333 34.133333-32 34.133333z" p-id="5779"></path></svg>
