<?xml version="1.0" standalone="no"?><!DOCTYPE svg PUBLIC "-//W3C//DTD SVG 1.1//EN" "http://www.w3.org/Graphics/SVG/1.1/DTD/svg11.dtd"><svg t="1719390950473" class="icon" viewBox="0 0 1109 1024" version="1.1" xmlns="http://www.w3.org/2000/svg" p-id="23428" xmlns:xlink="http://www.w3.org/1999/xlink" width="216.6015625" height="200"><path d="M277.333333 1024h554.609778v-136.533333H277.333333V1024zM1051.477333 0H57.827556C25.884444-0.028444 0 25.400889 0 56.803556v705.450666c-0.028444 31.431111 25.799111 56.888889 57.685333 56.945778H1051.591111c31.886222 0 57.742222-25.457778 57.742222-56.888889V56.974222c0.028444-31.431111-25.799111-56.888889-57.685333-56.945778h-0.142222z m-136.362666 446.577778c-77.340444 124.984889-215.011556 201.472-363.633778 202.012444-146.688-0.369778-282.396444-76.600889-357.376-200.760889a77.852444 77.852444 0 0 1 0-76.401777C269.084444 247.324444 404.764444 171.121778 551.452444 170.723556c148.622222 0.483556 286.350222 76.970667 363.633778 202.012444 12.885333 22.983111 12.913778 50.858667 0.056889 73.870222zM551.509333 250.311111c-89.372444 0.056889-161.792 71.424-161.735111 159.431111 0.028444 87.978667 72.533333 159.288889 161.877334 159.260445 89.372444-0.028444 161.792-71.395556 161.735111-159.402667-0.056889-87.921778-72.448-159.203556-161.735111-159.288889h-0.142223z m0 254.919111c-53.589333 0-97.052444-42.780444-97.052444-95.573333 0-52.764444 43.463111-95.573333 97.052444-95.573333 53.617778 0 97.052444 42.808889 97.052445 95.573333 0 52.707556-43.377778 95.431111-96.910222 95.516444l-0.142223 0.056889z" p-id="23429"></path></svg>