<?xml version="1.0" standalone="no"?>
<!DOCTYPE svg PUBLIC "-//W3C//DTD SVG 1.1//EN" "http://www.w3.org/Graphics/SVG/1.1/DTD/svg11.dtd">
<svg t="1701435932100" class="icon" viewBox="0 0 1024 1024" version="1.1"
    xmlns="http://www.w3.org/2000/svg" p-id="3038" xmlns:xlink="http://www.w3.org/1999/xlink"
    width="24" height="24">
    <path
        d="M992.220407 320.047957h-223.152798L594.423507 145.403854a95.99346 95.99346 0 1 0-164.276809 0.703952L256.078557 320.047957H31.773838A31.99782 31.99782 0 0 0 0.032 352.109773v639.828411c0 17.342819 14.207032 32.061816 31.741838 32.061816h960.382574a31.99782 31.99782 0 0 0 31.741837-32.061816V352.109773A31.99782 31.99782 0 0 0 992.220407 320.047957zM480.063298 186.617047a95.865469 95.865469 0 0 0 64.699592-0.319978L678.513778 320.047957H346.568392l133.494906-133.43091zM128.023281 512.034878h319.978201v63.99564H128.023281V512.034878z m511.965122 319.978201H128.023281v-63.99564h511.965122v63.99564z m191.986921-127.99128H128.023281v-63.995641h703.952043v63.995641z"
        p-id="3039" ></path>
</svg>