<svg t="1719390728487" class="icon" viewBox="0 0 1024 1024" version="1.1" xmlns="http://www.w3.org/2000/svg" p-id="17345" width="200" height="200"><path d="M893.857 339.961c-36.563-48.857-88.636-85.674-146.625-103.668-7.912-2.455-16.316 1.968-18.771 9.881-2.455 7.912 1.969 16.316 9.881 18.771 109.655 34.026 183.33 134.102 183.33 249.028 0 115.621-74.249 215.873-184.759 249.465-7.926 2.409-12.398 10.788-9.989 18.714 1.968 6.473 7.915 10.642 14.346 10.642 1.445 0 2.915-0.21 4.368-0.652 58.382-17.746 110.847-54.505 147.73-103.506 38.143-50.673 58.304-111.07 58.304-174.662 0-63.3-19.992-123.472-57.815-174.013z" fill="" p-id="17346"></path><path d="M760.359 623.032c23.798-31.615 36.377-69.296 36.377-108.969 0-39.489-12.474-77.029-36.072-108.563-22.808-30.477-55.294-53.444-91.475-64.671-7.913-2.456-16.316 1.968-18.771 9.881-2.455 7.912 1.969 16.316 9.881 18.771 63.664 19.754 106.438 77.857 106.438 144.581 0 67.128-43.107 125.333-107.267 144.834-7.926 2.409-12.398 10.787-9.989 18.714 1.967 6.473 7.915 10.642 14.347 10.642 1.444 0 2.913-0.21 4.367-0.652 36.424-11.071 69.156-34.001 92.164-64.568zM536.156 152.845a15 15 0 0 0-15.455 0.86L286.395 313.226H173.643c-46.24 0-83.86 37.62-83.86 83.86V625.7c0 46.241 37.62 83.86 83.86 83.86h112.746l234.313 159.526a14.994 14.994 0 0 0 23.441-12.399l-0.001-690.583a14.998 14.998 0 0 0-7.986-13.259z" fill="" p-id="17347"></path></svg>
