<svg t="1719391503697" class="icon" viewBox="0 0 1103 1024" version="1.1" xmlns="http://www.w3.org/2000/svg" p-id="32973" width="200" height="200"><path d="M559.509831 962.121628V677.457705A83.54824 83.54824 0 0 1 595.518976 608.6877l218.015546-150.708733a84.031093 84.031093 0 0 1 94.6246-0.278007l106.037494 72.413352V66.37037C1014.284408 28.678555 986.191129 0 948.382259 0H126.770919v112.95839h0.234111v70.233197H56.186557A56.347508 56.347508 0 0 0 0 239.378144v26.337448A56.347508 56.347508 0 0 0 56.186557 321.902149h70.818473v130.224051H61.454047a56.347508 56.347508 0 0 0-56.186557 56.186557v26.337449A56.347508 56.347508 0 0 0 61.454047 590.89529h65.550983v130.224052H56.186557A56.347508 56.347508 0 0 0 0 777.247371v26.337448a56.347508 56.347508 0 0 0 56.186557 56.186557h70.818473v47.992684h-0.234111v116.23594h460.21765a83.299497 83.299497 0 0 1-27.478738-61.878372z m-228.009145-6.481939H201.920439V859.771376h38.628258a56.347508 56.347508 0 0 0 56.186557-56.186557v-26.337448a56.347508 56.347508 0 0 0-56.186557-56.186557H201.920439v-130.224051h43.778692a56.376772 56.376772 0 0 0 56.186557-56.303613v-26.161865a56.347508 56.347508 0 0 0-56.186557-56.186557H201.920439V321.902149h38.628258a56.347508 56.347508 0 0 0 56.186557-56.186557v-26.337448a56.347508 56.347508 0 0 0-56.186557-56.186557H201.920439V68.360311h129.580247z" p-id="32974"></path><path d="M1054.214906 895.897577c-10.46182 0.117055-20.791952 0.175583-30.727023 0.175583h-23.630544a55.206219 55.206219 0 0 0-15.641518 1.697302v0.951074c0 4.389575-0.102423 9.730224-0.321902 15.787838-0.219479 5.764975-0.321902 10.915409-0.321903 15.304984 0 14.96845-6.628258 21.421125-12.203017 24.201188a19.416552 19.416552 0 0 1-8.77915 2.048469c-5.048011 0-11.310471-1.858253-18.699588-7.520805l-0.175583-0.146319c-6.496571-5.19433-14.222222-11.339735-22.957476-18.260631s-17.704618-14.075903-27.083677-21.567444-18.377686-14.631916-27.171467-21.6845-16.855967-13.358939-23.703704-18.71422l-0.102424-0.087791c-9.218107-7.315958-13.783265-14.909922-13.973479-23.016004s4.111568-15.890261 12.802926-23.045268c6.101509-5.238226 13.461363-11.339735 21.860083-18.114311s17.133973-13.797897 26.337448-21.099223 18.011888-14.441701 26.644719-21.450389 16.577961-13.505258 23.484225-19.123914c10.608139-8.486511 19.943301-11.398262 28.502972-8.925469 5.662551 1.638775 15.187929 6.979424 15.187929 24.274349v8.091449c0 2.926383 0 5.852766 0.160951 9.027892s0.219479 6.423411 0.321902 9.54001 0.160951 5.969822 0.160951 8.398719c0 0.336534 0 0.643804 0.07316 0.892547a31.195245 31.195245 0 0 0 7.447645 0.716964c6.247828 0 14.485597 0 24.508459-0.160951s20.85048-0.160951 31.853681-0.160951 21.669867 0 31.941472-0.160951c9.130316-0.102423 16.841335-0.160951 22.98674-0.160951v-107.178784a49.748514 49.748514 0 0 0-21.669868-40.969364l-191.970736-131.20439a49.748514 49.748514 0 0 0-56.28898 0.175583l-189.410151 130.955647A49.748514 49.748514 0 0 0 622.222222 686.236854v247.279378a49.748514 49.748514 0 0 0 49.748514 49.748514H1053.351623a49.748514 49.748514 0 0 0 49.748514-49.748514v-37.779606h-19.314129c-9.291267 0-19.226337 0.058528-29.571102 0.160951z m-309.874714 8.618198a19.197074 19.197074 0 0 1-19.197074 19.197074H696.479195a19.197074 19.197074 0 0 1-19.197073-19.197074V844.261545A19.197074 19.197074 0 0 1 696.479195 825.005944h28.605396A19.197074 19.197074 0 0 1 744.340192 844.261545z m0-126.258802A19.182442 19.182442 0 0 1 725.143118 797.439415H696.479195a19.182442 19.182442 0 0 1-19.197073-19.197074v-60.283493A19.182442 19.182442 0 0 1 696.479195 698.761774h28.605396a19.182442 19.182442 0 0 1 19.197073 19.197074z" p-id="32975"></path><path d="M1101.461363 845.549154q-0.102423-5.691815-0.117056-11.807956a16.621856 16.621856 0 0 0-1.697302-8.062186 13.168724 13.168724 0 0 0-4.316415-4.770004 14.119799 14.119799 0 0 0-5.852766-2.165524 42.798354 42.798354 0 0 0-6.130773-0.453589q-6.818473 0-17.733882 0.117055c-7.315958 0-48.41701 0.102423-56.142661 0.102424s-15.144033 0-22.269776 0.117055-12.861454 0.117055-17.265661 0.117055a23.967078 23.967078 0 0 1-9.305899-1.463191q-3.409236-1.463192-3.643347-7.155007c0-1.668038 0-3.599451-0.102423-5.852767s-0.160951-4.389575-0.234111-6.701417-0.117055-4.389575-0.117055-6.584362v-5.691815q0-8.164609-5.106539-9.642433t-13.066301 4.872428l-16.475537 13.402835q-9.203475 7.506173-18.743484 15.114769t-18.392318 14.763603q-8.866941 7.155007-15.231825 12.612712c-4.243256 3.482396-6.320988 6.862369-6.247828 10.110653s2.385002 6.701417 6.935528 10.344765q7.315958 5.662551 16.695016 13.168724t19.021491 15.231825q9.657064 7.725652 19.021491 15.100137t16.095107 12.846822q6.818473 5.223594 11.134888 3.05807t4.316415-10.110653q0-4.770005 0.234111-11.017833c0.146319-4.170096 0.219479-7.754915 0.219479-10.783722q-0.219479-6.145405 4.887059-7.842707a44.627343 44.627343 0 0 1 13.754001-1.711934h16.577961q10.447188 0 21.465021-0.102424c7.315958-0.087791 47.934156-0.117055 54.445359-0.117055h14.324645q9.978967 0 14.529493-3.409236t4.550526-12.949246q0.102423-6.994056-0.014632-12.685871z" p-id="32976"></path></svg>
