<?xml version="1.0" standalone="no"?><!DOCTYPE svg PUBLIC "-//W3C//DTD SVG 1.1//EN" "http://www.w3.org/Graphics/SVG/1.1/DTD/svg11.dtd"><svg t="1719390748928" class="icon" viewBox="0 0 1151 1024" version="1.1" xmlns="http://www.w3.org/2000/svg" p-id="18405" xmlns:xlink="http://www.w3.org/1999/xlink" width="224.8046875" height="200"><path d="M575.521668 26.303481L26.131723 552.977036M26.131723 578.795262a25.909456 25.909456 0 0 1-18.246096-44.520474L557.640494 7.601232A25.818226 25.818226 0 1 1 593.311612 44.914498L44.104127 571.679285a26.091917 26.091917 0 0 1-17.972404 7.115977zM575.521668 26.303481l549.389945 526.673555" p-id="18406"></path><path d="M1124.911613 578.795262a26.091917 26.091917 0 0 1-18.246096-7.115977L557.640494 44.914498A25.818226 25.818226 0 1 1 593.311612 7.601232l549.389945 526.673556a25.909456 25.909456 0 0 1-18.246096 44.520474zM930.317001 654.51656a364.921916 364.921916 0 0 1-729.843833 0l364.921917-364.921917z" p-id="18407"></path><path d="M565.395085 1024a369.939593 369.939593 0 0 1-369.48344-369.48344v-1.91584L565.395085 283.20851l369.48344 369.48344v1.91584a369.939593 369.939593 0 0 1-369.48344 369.39221z m-360.360393-367.5676a360.360392 360.360392 0 0 0 720.720785 0l-360.360392-360.360393z" p-id="18408"></path></svg>