<svg t="1695884991858" class="icon" viewBox="0 0 1024 1024" version="1.1" xmlns="http://www.w3.org/2000/svg" p-id="2498" width="200" height="200"><path d="M540.113 304.662c-7.857-8.407-18.688-13.262-29.66-13.262-10.124 0-19.56 4.118-26.574 11.597L306.38 498.683c-6.995 7.479-10.056 15.676-7.796 20.883 1.834 4.229 7.486 6.654 15.508 6.654h108.255v194.54c0 24.046 18.02 43.608 40.17 43.608h98.962c22.15 0 40.171-19.562 40.171-43.607V526.22h108.255c7.92 0 13.545-2.5 15.436-6.857 2.38-5.486-0.665-13.932-7.76-21.516L540.113 304.662z" fill="" p-id="2499"></path><path d="M512 65.086C265.192 65.086 65.085 265.157 65.085 512c0 246.806 200.107 446.913 446.912 446.913 246.824 0 446.912-200.107 446.912-446.913C958.911 265.157 758.823 65.086 512 65.086z m230.426 461.69c-4.982 11.481-16.835 18.066-32.52 18.066h-89.634v175.92c0 34.312-26.373 62.229-58.792 62.229h-98.962c-32.419 0-58.792-27.916-58.792-62.23V544.843h-89.634c-15.786 0-27.666-6.51-32.591-17.863-5.367-12.369-1.169-27.677 11.229-40.96l177.496-195.687c10.579-11.32 24.864-17.553 40.226-17.553 16.111 0 31.9 7.008 43.319 19.228l177.466 193.181c12.483 13.343 16.687 28.913 11.189 41.588z" fill="" p-id="2500"></path></svg>
