<svg t="1719390235381" class="icon" viewBox="0 0 1024 1024" version="1.1" xmlns="http://www.w3.org/2000/svg" p-id="4480" width="200" height="200"><path d="M950.857143 0H73.142857C29.257143 0 0 29.257143 0 73.142857v512c0 43.885714 29.257143 73.142857 73.142857 73.142857h365.714286v219.428572H292.571429c-43.885714 0-73.142857 29.257143-73.142858 73.142857s29.257143 73.142857 73.142858 73.142857h438.857142c43.885714 0 73.142857-29.257143 73.142858-73.142857s-29.257143-73.142857-73.142858-73.142857H585.142857V658.285714h365.714286c43.885714 0 73.142857-29.257143 73.142857-73.142857V73.142857c0-43.885714-29.257143-73.142857-73.142857-73.142857zM643.657143 438.857143L409.6 314.514286l-153.6 219.428571-65.828571-43.885714L380.342857 219.428571l234.057143 117.028572 153.6-219.428572 58.514286 43.885715L643.657143 438.857143z" p-id="4481"></path></svg>
